<?xml version="1.0" encoding="UTF-8" standalone="no"?>
<!-- Created with Inkscape (http://www.inkscape.org/) -->

<svg
   width="200"
   height="200"
   viewBox="0 0 200 200"
   version="1.1"
   id="svg5"
   xmlns="http://www.w3.org/2000/svg"
   xmlns:svg="http://www.w3.org/2000/svg">
  <defs
     id="defs2" />
  <g
     id="layer1">
    <path
       id="path1070"
       style="fill:#000000;stroke:none;stroke-width:1;stroke-linecap:round;stroke-linejoin:round;stroke-dasharray:none"
       d="M 99.492188 3.1347656 A 2.1405586 2.1405586 0 0 0 98.019531 4.3320312 L 69.986328 65.632812 A 12.53873 12.53873 0 0 1 63.648438 71.888672 L 4.3574219 98.076172 A 2.1405586 2.1405586 0 0 0 4.3320312 101.98047 L 65.632812 130.01367 A 12.53873 12.53873 0 0 1 71.888672 136.35156 L 98.076172 195.64258 A 2.1405586 2.1405586 0 0 0 101.98047 195.66797 L 130.01367 134.36719 A 12.53873 12.53873 0 0 1 136.35156 128.11133 L 195.64258 101.92383 A 2.1405586 2.1405586 0 0 0 195.66797 98.019531 L 134.36719 69.986328 A 12.53873 12.53873 0 0 1 128.11133 63.648438 L 101.92383 4.3574219 A 2.1405586 2.1405586 0 0 0 99.492188 3.1347656 z M 100 76 A 24.00032 24.00032 0 0 1 124 100 A 24.00032 24.00032 0 0 1 100 124 A 24.00032 24.00032 0 0 1 76 100 A 24.00032 24.00032 0 0 1 100 76 z " />
  </g>
</svg>
