<?xml version="1.0" encoding="UTF-8" standalone="no"?>
<!-- Created with Inkscape (http://www.inkscape.org/) -->

<svg
   width="40"
   height="40"
   viewBox="0 0 40 40"
   version="1.1"
   id="svg5"
   xmlns="http://www.w3.org/2000/svg"
   xmlns:svg="http://www.w3.org/2000/svg">
  <defs
     id="defs2" />
  <g
     id="layer1">
    <rect
       style="opacity:1;fill:#37c837;stroke:#000000;stroke-width:0.8;stroke-linecap:round;stroke-linejoin:round;stroke-dasharray:none"
       id="rect1427"
       width="2.4822419"
       height="10.80446"
       x="18.758879"
       y="27.851204" />
    <g
       id="g1356"
       transform="matrix(0.83666606,-0.48264877,0.48304938,0.83597219,-15.367175,18.341364)"
       style="stroke-width:1.03552">
      <path
         id="path1187"
         style="fill:#37c837;stroke:#000000;stroke-width:0.828416;stroke-linecap:round;stroke-linejoin:round;stroke-dasharray:none"
         d="m 32.570968,31.999999 a 16.781739,16.781739 0 0 0 -11.40886,4.51816 16.781739,16.781739 0 0 0 11.40886,4.518161 16.781739,16.781739 0 0 0 11.429031,-4.538331 16.781739,16.781739 0 0 0 -11.429031,-4.49799 z" />
      <path
         style="opacity:1;fill:#ffcc00;stroke:#000000;stroke-width:0.828416;stroke-linecap:round;stroke-linejoin:round;stroke-dasharray:none"
         d="m 43.999999,36.497989 -22.837891,0.02017"
         id="path1352" />
    </g>
    <g
       id="g1367"
       transform="matrix(0.91464285,0,0,0.91491815,1.7071431,-0.5746423)"
       style="stroke-width:1.09316">
      <path
         id="path236"
         style="fill:#ffffff;stroke:#000000;stroke-width:0.874526;stroke-linecap:round;stroke-linejoin:round;stroke-dasharray:none"
         d="M 20.021484,1.359375 C 16.924065,3.1374285 15.010041,6.4343922 15,10.005859 c 0.0014,0.529536 0.05009,1.05107 0.132812,1.564453 C 14.729655,11.242071 14.301557,10.937749 13.84375,10.671875 10.757852,8.8915785 6.9588658,8.888468 3.8691406,10.662109 3.8602706,14.23358 5.7557891,17.537602 8.84375,19.332031 9.302478,19.59532 9.7783021,19.815076 10.263672,20 9.7783021,20.184925 9.302478,20.404679 8.84375,20.667969 5.7590224,22.450288 3.8565003,25.73818 3.8476562,29.300781 c 3.0885491,1.793416 6.8980918,1.804378 9.9960938,0.02734 0.457807,-0.265874 0.885905,-0.570196 1.289062,-0.898437 -0.08272,0.513383 -0.131461,1.034917 -0.132812,1.564453 0.0012,3.562612 1.897635,6.857524 4.978516,8.646484 3.097419,-1.778054 5.011443,-5.075017 5.021484,-8.646484 -0.0014,-0.529536 -0.05009,-1.05107 -0.132812,-1.564453 0.403157,0.328241 0.831255,0.632563 1.289062,0.898437 3.085898,1.780292 6.884884,1.783411 9.974609,0.0098 0.0089,-3.571471 -1.886648,-6.875493 -4.974609,-8.669922 C 30.697522,20.40468 30.221698,20.184924 29.736328,20 c 0.48537,-0.184925 0.961194,-0.404679 1.419922,-0.667969 3.084728,-1.782319 4.98725,-5.070211 4.996094,-8.632812 -3.088549,-1.7934166 -6.898092,-1.8043786 -9.996094,-0.02734 -0.457807,0.265874 -0.885905,0.570196 -1.289062,0.898437 C 24.949913,11.056929 24.998649,10.535395 25,10.005859 24.9988,6.4432474 23.102365,3.1483348 20.021484,1.359375 Z m -1.332031,16.371094 c 0.409454,0.333306 0.844833,0.641278 1.310547,0.910156 0.465714,-0.268878 0.901092,-0.57685 1.310547,-0.910156 -0.08389,0.521153 -0.132815,1.052189 -0.132813,1.589843 0.465966,0.269028 0.949701,0.491685 1.44336,0.679688 -0.493659,0.188003 -0.977394,0.410661 -1.44336,0.679688 -2e-6,0.537654 0.04892,1.06869 0.132813,1.589843 C 20.901093,21.936225 20.465714,21.628253 20,21.359375 c -0.465714,0.268878 -0.901092,0.57685 -1.310547,0.910156 0.08389,-0.521153 0.132815,-1.052189 0.132813,-1.589843 C 18.3563,20.41066 17.872565,20.188003 17.378906,20 c 0.493659,-0.188003 0.977394,-0.410661 1.44336,-0.679688 2e-6,-0.537654 -0.04892,-1.06869 -0.132813,-1.589843 z" />
      <path
         id="path1073"
         style="fill:#ffcc00;stroke:#000000;stroke-width:0.874526;stroke-linecap:round;stroke-linejoin:round;stroke-dasharray:none"
         d="m 15.833186,15.942219 c -0.412519,0.252671 -0.769634,0.610002 -1.028516,1.058401 -0.555202,0.961635 -0.5157,2.101098 0.0015,2.99866 -0.517482,0.897645 -0.557215,2.038781 -0.0019,3.000612 0.555314,0.961832 1.563433,1.497989 2.599558,1.49866 0.518721,0.896673 1.485773,1.500613 2.596175,1.500613 1.110296,0 2.079319,-0.603467 2.598076,-1.5 1.035798,-9.9e-4 2.042928,-0.538455 2.598076,-1.5 0.555201,-0.961636 0.5157,-2.101098 -0.0015,-2.99866 0.517481,-0.897646 0.557215,-2.038781 0.0019,-3.000613 -0.555313,-0.961831 -1.563433,-1.497989 -2.599557,-1.498659 -0.518721,-0.896673 -1.485774,-1.500614 -2.596175,-1.500613 -1.110297,0 -2.07932,0.603467 -2.598076,1.5 -0.552774,5.29e-4 -1.097475,0.152443 -1.569561,0.441599 z" />
      <path
         style="fill:#ff6600;stroke:none;stroke-width:0.874526;stroke-linecap:round;stroke-linejoin:round;stroke-dasharray:none"
         id="path1017"
         d="m 18,20 c 0,0.552285 -0.447715,1 -1,1 -0.552285,0 -1,-0.447715 -1,-1 0,-0.552285 0.447715,-1 1,-1 0.552285,0 1,0.447715 1,1 z m 1,1.732051 c 0.478293,0.276142 0.642168,0.887733 0.366025,1.366025 C 19.089883,23.576369 18.478293,23.740244 18,23.464102 17.521707,23.187959 17.357832,22.576369 17.633975,22.098076 17.910117,21.619784 18.521707,21.455908 19,21.732051 Z m 2,0 c 0.478293,-0.276143 1.089883,-0.112267 1.366025,0.366025 C 22.642168,22.576369 22.478293,23.187959 22,23.464102 21.521707,23.740244 20.910117,23.576369 20.633975,23.098076 20.357832,22.619784 20.521707,22.008193 21,21.732051 Z M 22,20 c 0,-0.552285 0.447715,-1 1,-1 0.552285,0 1,0.447715 1,1 0,0.552285 -0.447715,1 -1,1 -0.552285,0 -1,-0.447715 -1,-1 z M 21,18.267949 C 20.521707,17.991807 20.357832,17.380216 20.633975,16.901924 20.910117,16.423631 21.521707,16.259756 22,16.535898 c 0.478293,0.276143 0.642168,0.887733 0.366025,1.366026 C 22.089883,18.380216 21.478293,18.544092 21,18.267949 Z m -2,0 C 18.521707,18.544092 17.910117,18.380216 17.633975,17.901924 17.357832,17.423631 17.521707,16.812041 18,16.535898 c 0.478293,-0.276142 1.089883,-0.112267 1.366025,0.366026 0.276143,0.478292 0.112268,1.089883 -0.366025,1.366025 z"
         class="UnoptimicedTransforms" />
    </g>
    <g
       id="g1373"
       transform="matrix(-0.83666606,-0.48264877,-0.48304938,0.83597219,55.324208,18.341364)"
       style="stroke-width:1.03552">
      <path
         id="path1369"
         style="fill:#37c837;stroke:#000000;stroke-width:0.828416;stroke-linecap:round;stroke-linejoin:round;stroke-dasharray:none"
         d="m 32.570968,31.999999 a 16.781739,16.781739 0 0 0 -11.40886,4.51816 16.781739,16.781739 0 0 0 11.40886,4.518161 16.781739,16.781739 0 0 0 11.429031,-4.538331 16.781739,16.781739 0 0 0 -11.429031,-4.49799 z" />
      <path
         style="opacity:1;fill:#ffcc00;stroke:#000000;stroke-width:0.828416;stroke-linecap:round;stroke-linejoin:round;stroke-dasharray:none"
         d="m 43.999999,36.497989 -22.837891,0.02017"
         id="path1371" />
    </g>
  </g>
</svg>
