<svg xmlns="http://www.w3.org/2000/svg" width="26px" height="38px" viewBox="0 0 26 37" style="display: block; overflow: visible; grid-area: 1;"><defs><filter id="6FF9AEAE-68DD-4D68-A71E-BAE32C7A43A0"><feFlood result="floodFill"></feFlood><feComposite in="floodFill" in2="SourceAlpha" operator="in" result="sourceAlphaFill"></feComposite><feComposite in="sourceAlphaFill" in2="SourceGraphic" operator="in"></feComposite></filter></defs><g fill="none" fill-rule="evenodd" style="pointer-events: auto;"><path class="RIFJN-maps-pin-view-border" d="M13 0C5.8175 0 0 5.77328 0 12.9181C0 20.5733 5.59 23.444 9.55499 30.0784C12.09 34.3207 11.3425 37 13 37C14.7225 37 13.975 34.2569 16.445 30.1422C20.085 23.8586 26 20.6052 26 12.9181C26 5.77328 20.1825 0 13 0Z" fill="#C5221F"></path><path class="RIFvHW-maps-pin-view-background" fill="#EA4335" d="M13.0167 35C12.7836 35 12.7171 34.9346 12.3176 33.725C11.9848 32.6789 11.4854 31.0769 10.1873 29.1154C8.92233 27.1866 7.59085 25.6173 6.32594 24.1135C3.36339 20.5174 1 17.7057 1 12.6385C1.03329 6.19808 6.39251 1 13.0167 1C19.6408 1 25 6.23078 25 12.6385C25 17.7057 22.6699 20.55 19.6741 24.1462C18.4425 25.65 17.1443 27.2193 15.8793 29.1154C14.6144 31.0442 14.0818 32.6135 13.749 33.6596C13.3495 34.9346 13.2497 35 13.0167 35Z"></path><path class="KWCFZI-maps-pin-view-default-glyph" d="M13 18C15.7614 18 18 15.7614 18 13C18 10.2386 15.7614 8 13 8C10.2386 8 8 10.2386 8 13C8 15.7614 10.2386 18 13 18Z" fill="#B31412" style="display: none;"></path><text x="50%" y="50%" text-anchor="middle" style="font-style: inherit; font-variant: inherit; font-weight: inherit; font-stretch: inherit; font-size: 16px; line-height: inherit; font-family: inherit; font-size-adjust: inherit; font-kerning: inherit; font-optical-sizing: inherit; font-language-override: inherit; font-feature-settings: inherit; font-variation-settings: inherit;" fill="#B31412"></text></g><g transform="translate(3,4) scale(0.08)"><line stroke="white" stroke-width="30px" x1="15" y1="45" x2="235" y2="45" /><line stroke="white" stroke-width="30px" x1="50" y1="95" x2="200" y2="95" /><line stroke="white" stroke-width="30px" x1="50" y1="45" x2="50" y2="215" /><line stroke="white" stroke-width="30px" x1="200" y1="45" x2="200" y2="215" /></g></svg>
