<?xml version="1.0" encoding="UTF-8" standalone="no"?>
<svg
   height="40"
   id="shuriken_svg"
   version="1.1"
   viewBox="0 96 960 960"
   width="40"
   xmlns="http://www.w3.org/2000/svg"
   xmlns:svg="http://www.w3.org/2000/svg">
  <defs
     id="defs7" />
  <path
     d="M 480,976 C 372.66667,884.66667 292.5,799.83333 239.5,721.5 186.5,643.16667 160,570.66667 160,504 c 0,-100 32.16667,-179.66667 96.5,-239 64.33333,-59.33333 138.83333,-89 223.5,-89 84.66667,0 159.16667,29.66667 223.5,89 64.33333,59.33333 96.5,139 96.5,239 0,66.66667 -26.5,139.16667 -79.5,217.5 C 667.5,799.83333 587.33333,884.66667 480,976 Z"
     id="path1787"
     style="fill:#42a5f5;stroke-width:72;stroke:#42a5f5" />
  <path
     style="fill:none;stroke:#ffffff;stroke-width:57.6;stroke-linecap:round;stroke-linejoin:round;stroke-dasharray:none"
     d="m 720.7349,434.5686 c 0,0 -127.02727,24.37895 -332.07362,-56.94916 C 221.35931,311.26199 188.11969,611.3072 373.31171,586.32044 558.5037,561.33368 722.8721,555.9669 722.8721,555.9669"
     id="path510" />
</svg>
