<?xml version="1.0" encoding="UTF-8" standalone="no"?>
<!-- Created with Fritzing (https://fritzing.org/) -->

<svg
   height="1023px"
   version="1.2"
   viewBox="0 0 164.502 105.149"
   width="1600px"
   x="0in"
   y="0in"
   id="svg1396"
   xmlns="http://www.w3.org/2000/svg"
   xmlns:svg="http://www.w3.org/2000/svg">
  <defs
     id="defs1400">
        
    
            
        
                
            
                    
                    
                    
                    
                    
                    
                    
                    
                    
                    
                    
                    
                    
                    
                    
                    
                    
                </defs>
  <polygon
     points="8,143.8 11.7,139.3 13.6,142.2 "
     id="_x30_.2"
     gorn="0.0.0.0.0.1"
     style="stroke-width:0.798084;stroke-dasharray:none"
     transform="matrix(-0.97907546,0,0,-0.97907546,18.800635,199.60606)" />
  <polygon
     points="10.3,147.3 14,142.7 15.9,145.6 "
     id="_x30_.3"
     gorn="0.0.0.0.0.2"
     style="stroke-width:0.798084;stroke-dasharray:none"
     transform="matrix(-0.97907546,0,0,-0.97907546,18.800635,199.60606)" />
  <polygon
     points="10.5,141.5 14.3,139 14.9,139.9 11.1,142.4 "
     id="_x30_.4"
     gorn="0.0.0.0.0.3"
     style="stroke-width:0.798084;stroke-dasharray:none"
     transform="matrix(-0.97907546,0,0,-0.97907546,18.800635,199.60606)" />
  <polygon
     points="12.8,144.9 16.6,142.4 17.2,143.3 13.4,145.9 "
     id="_x30_.5"
     gorn="0.0.0.0.0.4"
     style="stroke-width:0.798084;stroke-dasharray:none"
     transform="matrix(-0.97907546,0,0,-0.97907546,18.800635,199.60606)" />
  <path
     stroke-linecap="round"
     d="m 17.136207,60.087807 c -4.601655,0 -8.3221417,-3.720487 -8.3221417,-8.322141 0,-4.601655 3.7204867,-8.322142 8.3221417,-8.322142"
     fill="none"
     stroke-width="0.126013"
     id="_x30_.6"
     stroke-linejoin="round"
     gorn="0.0.0.0.0.5"
     stroke="#000000"
     style="stroke-width:0.781384;stroke-dasharray:none" />
  <rect
     stroke-linecap="round"
     y="-65.864349"
     fill="none"
     stroke-width="0.126013"
     id="_x30_.7"
     height="26.924576"
     width="14.098686"
     x="-31.332802"
     stroke-linejoin="round"
     gorn="0.0.0.0.0.6"
     stroke="#000000"
     style="stroke-width:0.781384;stroke-dasharray:none"
     transform="scale(-1)" />
  <g
     id="g812"
     style="stroke-width:0.798084;stroke-dasharray:none"
     transform="matrix(-0.97907546,0,0,-0.97907546,18.800635,199.60606)">
                        <line
   stroke-linecap="round"
   y1="143.3"
   fill="none"
   stroke-width="0.105011"
   id="connector2pin"
   y2="143.3"
   x1="-19.6"
   stroke-linejoin="round"
   gorn="0.0.0.0.0.7.0"
   x2="-12.4"
   stroke="#787878"
   style="stroke-width:0.798084;stroke-dasharray:none" />

                        <polygon
   fill="none"
   points="-18.7,142.9 -18.7,143.6 -20,143.7 -20,142.9 "
   id="polygon810"
   style="stroke-width:0.798084;stroke-dasharray:none" />

                    </g>
  <rect
     y="-61.066883"
     fill="none"
     id="connector8"
     height="0.6853528"
     width="3.9163017"
     x="-38.382145"
     gorn="0.0.0.0.0.8"
     style="stroke-width:0.781384;stroke-dasharray:none"
     transform="scale(-1)" />
  <g
     id="g819"
     style="stroke-width:0.798084;stroke-dasharray:none"
     transform="matrix(-0.97907546,0,0,-0.97907546,18.800635,199.60606)">
                        <line
   stroke-linecap="round"
   y1="150.5"
   fill="none"
   stroke-width="0.105011"
   id="connector0pin-7"
   y2="150.5"
   x1="-19.6"
   stroke-linejoin="round"
   gorn="0.0.0.0.0.9.0"
   x2="-12.4"
   stroke="#787878"
   style="stroke-width:0.798084;stroke-dasharray:none" />

                        <polygon
   fill="none"
   points="-18.9,150.8 -20,150.9 -20,150.2 -19,150.2 "
   id="polygon816"
   style="stroke-width:0.798084;stroke-dasharray:none" />

                        <rect
   y="150.10001"
   fill="none"
   id="connector9"
   height="0.80000001"
   width="4"
   x="-20"
   gorn="0.0.0.0.0.9.2"
   style="stroke-width:0.798084;stroke-dasharray:none" />

                    </g>
  <g
     id="g825"
     style="stroke-width:0.798084;stroke-dasharray:none"
     transform="matrix(-0.97907546,0,0,-0.97907546,18.800635,199.60606)">
                        <line
   stroke-linecap="round"
   y1="157.7"
   fill="none"
   stroke-width="0.105011"
   id="connector1pin-5"
   y2="157.7"
   x1="-19.6"
   stroke-linejoin="round"
   gorn="0.0.0.0.0.10.0"
   x2="-12.4"
   stroke="#787878"
   style="stroke-width:0.798084;stroke-dasharray:none" />

                        <polygon
   fill="none"
   points="-18.7,158.1 -20,158.1 -20,157.4 -18.7,157.4 "
   id="polygon822"
   style="stroke-width:0.798084;stroke-dasharray:none" />

                        <rect
   y="157.3"
   fill="none"
   id="connector10"
   height="0.80000001"
   width="4"
   x="-20"
   gorn="0.0.0.0.0.10.2"
   style="stroke-width:0.798084;stroke-dasharray:none" />

                    </g>
  <g
     id="g4075"
     transform="rotate(180,24.702073,59.280863)">
    <g
       transform="matrix(-0.97907546,0,0,-0.97907546,28.881098,58.298938)"
       id="g833"
       style="stroke-width:0.798084;stroke-dasharray:none">
                        <g
   id="g831"
   style="stroke-width:0.798084;stroke-dasharray:none">
                            <g
   id="g829"
   style="stroke-width:0.798084;stroke-dasharray:none">
                                <text
   font-size="2.79752px"
   font-family="'Droid Sans'"
   id="text827"
   style="stroke-width:0.798084;stroke-dasharray:none">D</text>

                            </g>

                        </g>

                    </g>
    <g
       transform="matrix(-0.97907546,0,0,-0.97907546,26.406681,58.298938)"
       id="g841"
       style="stroke-width:0.798084;stroke-dasharray:none">
                        <g
   id="g839"
   style="stroke-width:0.798084;stroke-dasharray:none">
                            <g
   id="g837"
   style="stroke-width:0.798084;stroke-dasharray:none">
                                <text
   font-size="2.79752px"
   font-family="'Droid Sans'"
   id="text835"
   style="stroke-width:0.798084;stroke-dasharray:none">A</text>

                            </g>

                        </g>

                    </g>
    <g
       transform="matrix(-0.97907546,0,0,-0.97907546,24.374903,58.298938)"
       id="g849"
       style="stroke-width:0.798084;stroke-dasharray:none">
                        <g
   id="g847"
   style="stroke-width:0.798084;stroke-dasharray:none">
                            <g
   id="g845"
   style="stroke-width:0.798084;stroke-dasharray:none">
                                <text
   font-size="2.79752px"
   font-family="'Droid Sans'"
   id="text843"
   style="stroke-width:0.798084;stroke-dasharray:none">T</text>

                            </g>

                        </g>

                    </g>
    <g
       transform="matrix(-0.97907546,0,0,-0.97907546,22.5362,58.298938)"
       id="g857"
       style="stroke-width:0.798084;stroke-dasharray:none">
                        <g
   id="g855"
   style="stroke-width:0.798084;stroke-dasharray:none">
                            <g
   id="g853"
   style="stroke-width:0.798084;stroke-dasharray:none">
                                <text
   font-size="2.79752px"
   font-family="'Droid Sans'"
   id="text851"
   style="stroke-width:0.798084;stroke-dasharray:none">A</text>

                            </g>

                        </g>

                    </g>
  </g>
  <g
     id="g4081"
     transform="rotate(180,25.843565,52.115895)">
    <g
       transform="matrix(-0.97907546,0,0,-0.97907546,28.881098,51.138078)"
       id="g865"
       style="stroke-width:0.798084;stroke-dasharray:none">
                        <g
   id="g863"
   style="stroke-width:0.798084;stroke-dasharray:none">
                            <g
   id="g861"
   style="stroke-width:0.798084;stroke-dasharray:none">
                                <text
   font-size="2.79752px"
   font-family="'Droid Sans'"
   id="text859"
   style="stroke-width:0.798084;stroke-dasharray:none">GND</text>

                            </g>

                        </g>

                    </g>
  </g>
  <g
     transform="matrix(0.97907546,0,0,0.97907546,23.942712,46.107715)"
     id="g873"
     style="stroke-width:0.798084;stroke-dasharray:none">
                        <g
   id="g871"
   style="stroke-width:0.798084;stroke-dasharray:none">
                            <g
   id="g869"
   style="stroke-width:0.798084;stroke-dasharray:none">
                                <text
   font-size="2.79752px"
   font-family="'Droid Sans'"
   id="text867"
   style="stroke-width:0.798084;stroke-dasharray:none">VCC</text>

                            </g>

                        </g>

                    </g>
  <g
     id="watermark">
    <g
       id="g1133">
      <g
         id="g1131">
        <path
           d="M139.77,98.9486c-0.604,0,-1.131,0.325,-1.422,0.809l-2.796,0l3.96,-4.071c0.146,-0.146,0.289,-0.322,0.428,-0.521c0.149,-0.222,0.228,-0.479,0.228,-0.768c0,-0.279,-0.097,-0.518,-0.287,-0.71c-0.19,-0.188,-0.444,-0.287,-0.754,-0.287l-4.636,0c-0.305,0,-0.555,0.06,-0.742,0.17c-0.219,0.13,-0.33,0.368,-0.33,0.707c0,0.329,0.111,0.562,0.33,0.692c0.188,0.111,0.438,0.168,0.742,0.168l3.148,0l-3.974,4.086c-0.146,0.147,-0.289,0.315,-0.425,0.504c-0.153,0.212,-0.23,0.472,-0.23,0.771c0,0.28,0.096,0.521,0.288,0.711c0.188,0.188,0.442,0.285,0.754,0.285l4.315,0c0.293,0.467,0.812,0.776,1.4,0.776c0.916,0,1.66,-0.744,1.66,-1.661C141.429,99.6936,140.684,98.9486,139.77,98.9486zM139.77,101.212c-0.334,0,-0.604,-0.271,-0.604,-0.604c0,-0.333,0.27,-0.604,0.604,-0.604c0.332,0,0.604,0.271,0.604,0.604C140.373,100.943,140.102,101.212,139.77,101.212z"
           fill="#8C8C8C"
           id="path1111" />
        <path
           d="M122.827,88.9066c-0.914,0,-1.659,0.745,-1.659,1.66c0,0.916,0.745,1.66,1.659,1.66s1.658,-0.744,1.658,-1.66C124.487,89.6516,123.743,88.9066,122.827,88.9066zM122.828,91.1696c-0.333,0,-0.604,-0.27,-0.604,-0.603s0.271,-0.603,0.604,-0.603c0.331,0,0.604,0.27,0.604,0.603S123.159,91.1696,122.828,91.1696z"
           fill="#8C8C8C"
           id="path1113" />
        <path
           d="M131.348,93.5686c-0.193,-0.111,-0.439,-0.169,-0.732,-0.169l-1.465,0L129.151,90.8776c0,-0.292,-0.057,-0.538,-0.166,-0.729C128.895,89.9916,128.702,89.8066,128.292,89.8066c-0.34,0,-0.578,0.116,-0.709,0.342c-0.109,0.193,-0.167,0.438,-0.167,0.729l0,2.521l-0.481,0c-0.295,0,-0.539,0.06,-0.731,0.169c-0.228,0.129,-0.341,0.368,-0.341,0.708c0,0.412,0.185,0.603,0.341,0.692c0.192,0.111,0.438,0.168,0.731,0.168l0.481,0l0,4.362c0,0.277,0.026,0.533,0.081,0.768c0.056,0.246,0.154,0.464,0.298,0.645c0.146,0.186,0.345,0.332,0.595,0.436c0.241,0.098,0.555,0.146,0.93,0.146l0.896,0c0.292,0,0.539,-0.054,0.731,-0.166c0.154,-0.089,0.341,-0.281,0.341,-0.693c0,-0.338,-0.114,-0.578,-0.341,-0.709c-0.192,-0.109,-0.439,-0.168,-0.731,-0.168l-0.821,0c-0.138,0,-0.19,-0.019,-0.207,-0.024c-0.014,-0.034,-0.035,-0.103,-0.035,-0.231L129.153,95.1366l1.465,0c0.295,0,0.541,-0.057,0.734,-0.168c0.152,-0.09,0.34,-0.28,0.34,-0.692C131.688,93.9366,131.575,93.6976,131.348,93.5686z"
           fill="#8C8C8C"
           id="path1115" />
        <path
           d="M122.893,93.3986l-1.191,0c-0.292,0,-0.538,0.059,-0.731,0.169c-0.226,0.129,-0.341,0.368,-0.341,0.708c0,0.412,0.188,0.604,0.341,0.691c0.193,0.113,0.439,0.168,0.731,0.168l0.544,0l0,5.362c0,0.293,0.057,0.539,0.167,0.73c0.131,0.227,0.367,0.341,0.708,0.341c0.411,0,0.604,-0.187,0.692,-0.341c0.111,-0.191,0.168,-0.438,0.168,-0.73L123.981,94.4866c0,-0.386,-0.084,-0.656,-0.256,-0.83C123.55,93.4846,123.28,93.3986,122.893,93.3986z"
           fill="#8C8C8C"
           id="path1117" />
        <path
           d="M119.058,93.5686c-0.193,-0.111,-0.44,-0.169,-0.732,-0.169l-0.604,0c-0.25,0,-0.498,0.063,-0.734,0.187c-0.226,0.119,-0.433,0.271,-0.616,0.453l-0.644,0.604l0,-0.247c0,-0.291,-0.055,-0.538,-0.168,-0.729c-0.128,-0.228,-0.368,-0.34,-0.707,-0.34c-0.41,0,-0.604,0.184,-0.693,0.34c-0.11,0.191,-0.167,0.438,-0.167,0.729l0,4.801c-0.475,0.293,-0.791,0.816,-0.791,1.412c0,0.917,0.745,1.661,1.658,1.661c0.916,0,1.66,-0.744,1.66,-1.661c0,-0.596,-0.317,-1.119,-0.792,-1.412l0,-2.21l1.738,-1.564c0.1,-0.09,0.199,-0.164,0.297,-0.217c0.084,-0.045,0.174,-0.067,0.274,-0.067l0.288,0c0.292,0,0.539,-0.056,0.732,-0.169c0.155,-0.088,0.339,-0.279,0.339,-0.691C119.398,93.9366,119.283,93.6976,119.058,93.5686zM114.859,101.212c-0.332,0,-0.603,-0.271,-0.603,-0.604c0,-0.333,0.271,-0.604,0.603,-0.604c0.333,0,0.604,0.271,0.604,0.604C115.463,100.943,115.192,101.212,114.859,101.212z"
           fill="#8C8C8C"
           id="path1119" />
        <path
           d="M112.342,90.0496c-0.193,-0.111,-0.44,-0.167,-0.731,-0.167l-0.59,0c-0.2,0,-0.389,0.004,-0.562,0.016c-0.176,0.009,-0.345,0.035,-0.506,0.07c-0.168,0.041,-0.336,0.109,-0.496,0.202c-0.158,0.093,-0.319,0.222,-0.48,0.382c-0.334,0.314,-0.554,0.656,-0.652,1.017c-0.094,0.348,-0.143,0.735,-0.143,1.151l0,0.678l-0.483,0c-0.292,0,-0.539,0.059,-0.73,0.169c-0.227,0.13,-0.342,0.369,-0.342,0.708c0,0.412,0.185,0.604,0.341,0.693c0.191,0.111,0.438,0.166,0.73,0.166l0.483,0l0,5.362c0,0.293,0.057,0.539,0.167,0.73c0.13,0.227,0.367,0.341,0.708,0.341c0.411,0,0.603,-0.187,0.692,-0.341c0.111,-0.191,0.168,-0.438,0.168,-0.73l0,-5.36l0.92,0c0.293,0,0.54,-0.057,0.732,-0.168c0.155,-0.09,0.34,-0.28,0.34,-0.692c0,-0.34,-0.114,-0.579,-0.34,-0.708c-0.189,-0.111,-0.436,-0.17,-0.729,-0.17l-0.92,0l0,-0.678c0,-0.218,0.019,-0.41,0.056,-0.571c0.032,-0.141,0.103,-0.261,0.218,-0.367l0.002,-0.004l0.002,-0.002c0.082,-0.082,0.176,-0.126,0.29,-0.136c0.15,-0.015,0.339,-0.022,0.564,-0.022l0.56,0c0.291,0,0.539,-0.058,0.731,-0.168c0.154,-0.088,0.339,-0.281,0.339,-0.693C112.682,90.4186,112.567,90.1796,112.342,90.0496z"
           fill="#8C8C8C"
           id="path1121" />
        <path
           d="M164.335,93.6666c-0.089,-0.156,-0.282,-0.34,-0.693,-0.34c-0.339,0,-0.578,0.113,-0.707,0.34c-0.078,0.133,-0.127,0.293,-0.152,0.477l-0.021,-0.021c-0.216,-0.236,-0.466,-0.42,-0.747,-0.539c-0.277,-0.119,-0.563,-0.183,-0.849,-0.183l-0.709,0c-0.249,0,-0.466,0.015,-0.64,0.041c-0.182,0.026,-0.352,0.074,-0.51,0.14c-0.158,0.066,-0.313,0.15,-0.459,0.254c-0.139,0.097,-0.303,0.226,-0.486,0.377c-0.188,0.156,-0.342,0.302,-0.463,0.434c-0.127,0.141,-0.23,0.293,-0.306,0.455c-0.069,0.16,-0.122,0.337,-0.147,0.523c-0.026,0.178,-0.041,0.391,-0.041,0.631l0,2.386c0,0.24,0.015,0.451,0.041,0.631c0.025,0.188,0.078,0.361,0.147,0.521c0.074,0.164,0.179,0.318,0.306,0.457c0.119,0.129,0.274,0.274,0.463,0.433c0.186,0.153,0.35,0.28,0.486,0.379c0.146,0.103,0.299,0.188,0.459,0.254c0.158,0.065,0.329,0.112,0.51,0.14c0.174,0.026,0.389,0.039,0.64,0.039l0.709,0c0.298,0,0.591,-0.066,0.87,-0.199c0.244,-0.114,0.492,-0.291,0.73,-0.523l0,1.434c0,0.18,-0.025,0.334,-0.072,0.465c-0.043,0.119,-0.159,0.258,-0.344,0.406c-0.154,0.127,-0.309,0.217,-0.457,0.264c-0.15,0.049,-0.341,0.074,-0.563,0.074l-2.203,0c-0.293,0,-0.538,0.055,-0.732,0.166c-0.152,0.088,-0.34,0.282,-0.34,0.692c0,0.341,0.115,0.579,0.34,0.71c0.194,0.109,0.439,0.167,0.732,0.167l2.326,0c0.247,0,0.463,-0.015,0.638,-0.041c0.179,-0.026,0.351,-0.073,0.513,-0.14c0.153,-0.064,0.31,-0.15,0.455,-0.254c0.143,-0.101,0.305,-0.227,0.487,-0.379c0.185,-0.153,0.343,-0.299,0.463,-0.431c0.128,-0.141,0.229,-0.294,0.304,-0.456c0.071,-0.162,0.123,-0.338,0.148,-0.523c0.025,-0.182,0.041,-0.393,0.041,-0.631l0,-7.898C164.502,94.1046,164.448,93.8576,164.335,93.6666zM162.766,98.1266c0,0.188,-0.062,0.35,-0.188,0.49c-0.15,0.172,-0.394,0.403,-0.716,0.686l-0.002,0.003l-0.002,0.004c-0.139,0.13,-0.291,0.237,-0.453,0.325c-0.148,0.082,-0.325,0.121,-0.526,0.121L160.578,99.7556c-0.222,0,-0.41,-0.021,-0.563,-0.072c-0.148,-0.049,-0.301,-0.137,-0.453,-0.264c-0.231,-0.186,-0.315,-0.322,-0.346,-0.404c-0.049,-0.131,-0.072,-0.285,-0.072,-0.465l0,-2.206c0,-0.18,0.023,-0.336,0.072,-0.467c0.029,-0.082,0.113,-0.217,0.346,-0.403c0.152,-0.127,0.305,-0.216,0.453,-0.265c0.153,-0.049,0.342,-0.072,0.563,-0.072l0.301,0c0.212,0,0.388,0.037,0.526,0.113c0.152,0.082,0.308,0.191,0.457,0.324c0.322,0.293,0.564,0.529,0.716,0.7c0.128,0.146,0.188,0.304,0.188,0.492L162.766,98.1266z"
           fill="#8C8C8C"
           id="path1123" />
        <path
           d="M144.356,88.9066c-0.914,0,-1.66,0.745,-1.66,1.66c0,0.916,0.746,1.66,1.66,1.66s1.66,-0.744,1.66,-1.66C146.016,89.6516,145.27,88.9066,144.356,88.9066zM144.356,91.1696c-0.332,0,-0.604,-0.27,-0.604,-0.603s0.271,-0.603,0.604,-0.603s0.604,0.27,0.604,0.603C144.96,90.8996,144.688,91.1696,144.356,91.1696z"
           fill="#8C8C8C"
           id="path1125" />
        <path
           d="M155.042,99.1746l-0.107,-3.419c-0.011,-0.178,-0.021,-0.338,-0.031,-0.489c-0.01,-0.162,-0.037,-0.322,-0.082,-0.476c-0.045,-0.158,-0.11,-0.309,-0.198,-0.453c-0.093,-0.146,-0.216,-0.289,-0.37,-0.42c-0.225,-0.192,-0.443,-0.334,-0.646,-0.416c-0.207,-0.084,-0.461,-0.127,-0.754,-0.127l-1.012,0c-0.259,0,-0.501,0.058,-0.716,0.164c-0.197,0.098,-0.39,0.203,-0.572,0.315l-0.003,0.002l-0.003,0.003l-0.837,0.555l0,-0.041c0,-0.291,-0.057,-0.539,-0.168,-0.733c-0.129,-0.226,-0.367,-0.339,-0.707,-0.339c-0.411,0,-0.604,0.185,-0.693,0.339c-0.109,0.194,-0.168,0.438,-0.168,0.733l0,6.099c0,0.295,0.059,0.539,0.168,0.734c0.09,0.153,0.282,0.338,0.693,0.338c0.34,0,0.578,-0.114,0.707,-0.338c0.111,-0.195,0.168,-0.439,0.168,-0.734L149.711,96.4366l1.953,-1.215c0.04,-0.024,0.082,-0.048,0.121,-0.063c0.031,-0.016,0.07,-0.025,0.115,-0.031c0.049,-0.012,0.117,-0.016,0.195,-0.016l0.362,0c0.188,0,0.334,0.021,0.435,0.059c0.082,0.029,0.143,0.076,0.18,0.143c0.05,0.078,0.08,0.18,0.098,0.303c0.02,0.139,0.034,0.309,0.045,0.504l0.096,3.097c-0.457,0.297,-0.762,0.811,-0.762,1.394c0,0.917,0.746,1.661,1.66,1.661c0.916,0,1.66,-0.744,1.66,-1.661C155.868,99.9996,155.535,99.4616,155.042,99.1746zM154.208,101.212c-0.334,0,-0.602,-0.271,-0.602,-0.604c0,-0.333,0.268,-0.604,0.602,-0.604c0.333,0,0.604,0.271,0.604,0.604C154.813,100.943,154.541,101.212,154.208,101.212z"
           fill="#8C8C8C"
           id="path1127" />
        <path
           d="M144.419,93.3986l-1.193,0c-0.293,0,-0.539,0.059,-0.731,0.169c-0.226,0.129,-0.341,0.368,-0.341,0.708c0,0.412,0.186,0.604,0.341,0.691c0.192,0.113,0.438,0.168,0.731,0.168l0.545,0l0,5.362c0,0.293,0.055,0.539,0.168,0.73c0.127,0.227,0.365,0.341,0.707,0.341c0.41,0,0.604,-0.187,0.691,-0.341c0.111,-0.191,0.17,-0.438,0.17,-0.73L145.507,94.4866c0,-0.386,-0.085,-0.656,-0.259,-0.83C145.076,93.4846,144.803,93.3986,144.419,93.3986z"
           fill="#8C8C8C"
           id="path1129" />
      </g>
    </g>
  </g>
  <g
     partID="854219460"
     id="g1150"
     transform="translate(4.6610165)">
    <g
       transform="translate(130.144,23.0952)"
       id="g1148">
      <g
         id="schematic">
        <circle
           cx="7.5599999"
           cy="14.7628"
           fill="none"
           id="circle12"
           r="7.1999998"
           stroke="#000000"
           stroke-linecap="round"
           stroke-linejoin="round"
           stroke-width="0.72" />
        <line
           fill="none"
           stroke="#555555"
           stroke-linecap="round"
           stroke-width="0.72"
           x1="7.55967"
           x2="7.55967"
           y1="9.3599997"
           y2="12.24"
           id="line1137" />
        <line
           fill="none"
           stroke="#555555"
           stroke-linecap="round"
           stroke-width="0.72"
           x1="6.0479999"
           x2="8.9280005"
           y1="10.8"
           y2="10.8"
           id="line1139" />
        <line
           fill="none"
           stroke="#555555"
           stroke-linecap="round"
           stroke-width="0.72"
           x1="6.0479999"
           x2="8.9280005"
           y1="18.719999"
           y2="18.719999"
           id="line1141" />
        <line
           fill="none"
           id="connector0pin"
           stroke="#555555"
           stroke-linecap="round"
           stroke-width="0.72"
           x1="7.55967"
           x2="7.55967"
           y1="7.1834998"
           y2="0.36000001" />
        <g
           fill="none"
           height="0.72"
           id="connector0terminal"
           stroke-width="0"
           width="0.72"
           x="7.22518"
           y="2.04636e-15" />
        <line
           fill="none"
           id="connector1pin"
           stroke="#555555"
           stroke-linecap="round"
           stroke-linejoin="round"
           stroke-width="0.72"
           x1="7.55967"
           x2="7.55967"
           y1="29.143499"
           y2="22.32" />
        <g
           fill="none"
           height="0.72"
           id="connector1terminal"
           stroke-width="0"
           width="0.72"
           x="7.22518"
           y="28.8" />
      </g>
    </g>
  </g>
  <g
     partID="854220530"
     id="g1186"
     transform="translate(4.6610165)">
    <g
       transform="translate(79.7791,20.359)"
       id="g1184">
      <g
         id="g1182">
        <line
           class="other"
           stroke="#000000"
           stroke-linecap="round"
           stroke-width="0.432002"
           x1="7.5500202"
           x2="8.6300297"
           y1="3.096"
           y2="0.21600001"
           id="line1152" />
        <line
           class="other"
           stroke="#000000"
           stroke-linecap="round"
           stroke-width="0.432002"
           x1="8.6300297"
           x2="10.43"
           y1="0.21600001"
           y2="5.9759998"
           id="line1154" />
        <line
           class="other"
           stroke="#000000"
           stroke-linecap="round"
           stroke-width="0.432002"
           x1="10.43"
           x2="12.23"
           y1="5.9759998"
           y2="0.21600001"
           id="line1156" />
        <line
           class="other"
           stroke="#000000"
           stroke-linecap="round"
           stroke-width="0.432002"
           x1="12.23"
           x2="14.03"
           y1="0.21600001"
           y2="5.9759998"
           id="line1158" />
        <line
           class="other"
           stroke="#000000"
           stroke-linecap="round"
           stroke-width="0.432002"
           x1="14.03"
           x2="15.8301"
           y1="5.9759998"
           y2="0.21600001"
           id="line1160" />
        <line
           class="other"
           stroke="#000000"
           stroke-linecap="round"
           stroke-width="0.432002"
           x1="15.8301"
           x2="17.6301"
           y1="0.21600001"
           y2="5.9759998"
           id="line1162" />
        <line
           class="other"
           stroke="#000000"
           stroke-linecap="round"
           stroke-width="0.432002"
           x1="17.6301"
           x2="19.430099"
           y1="5.9759998"
           y2="0.21600001"
           id="line1164" />
        <line
           class="other"
           stroke="#000000"
           stroke-linecap="round"
           stroke-width="0.432002"
           x1="19.430099"
           x2="21.230101"
           y1="0.21600001"
           y2="5.9759998"
           id="line1166" />
        <line
           class="other"
           stroke="#000000"
           stroke-linecap="round"
           stroke-width="0.432002"
           x1="21.230101"
           x2="21.9501"
           y1="5.9759998"
           y2="3.096"
           id="line1168" />
        <line
           class="pin"
           connectorname="2"
           id="line1170"
           stroke="#787878"
           stroke-linecap="round"
           stroke-width="0.700001"
           x1="29.1502"
           x2="21.9501"
           y1="3.096"
           y2="3.096" />
        <g
           class="terminal"
           fill="none"
           height="0.000283465"
           id="g1172"
           stroke="none"
           stroke-width="0"
           width="0.000283466"
           x="29.1502"
           y="3.096" />
        <text
           class="text"
           fill="#8c8c8c"
           font-family="'Droid Sans'"
           font-size="2.50001px"
           stroke="none"
           stroke-width="0"
           text-anchor="middle"
           x="25.5501"
           y="2.046"
           id="text1174">2</text>
        <line
           class="pin"
           connectorname="1"
           id="line1176"
           stroke="#787878"
           stroke-linecap="round"
           stroke-width="0.700001"
           x1="0.35000101"
           x2="7.5500202"
           y1="3.096"
           y2="3.096" />
        <g
           class="terminal"
           fill="none"
           height="0.000283465"
           id="g1178"
           stroke="none"
           stroke-width="0"
           width="0.000283466"
           x="0.350001"
           y="3.096" />
        <text
           class="text"
           fill="#8c8c8c"
           font-family="'Droid Sans'"
           font-size="2.50001px"
           stroke="none"
           stroke-width="0"
           text-anchor="middle"
           x="3.9500101"
           y="2.046"
           id="text1180">1</text>
      </g>
    </g>
  </g>
  <g
     partID="854220620"
     id="g1224"
     transform="translate(4.6610165)">
    <g
       transform="translate(62.6333,81.4055)"
       id="g1222">
      <g
         transform="rotate(-90)"
         id="g1220">
        <g
           id="g1218">
          <line
             class="other"
             stroke="#000000"
             stroke-linecap="round"
             stroke-width="0.432002"
             x1="7.5500202"
             x2="8.6300297"
             y1="3.096"
             y2="0.21600001"
             id="line1188" />
          <line
             class="other"
             stroke="#000000"
             stroke-linecap="round"
             stroke-width="0.432002"
             x1="8.6300297"
             x2="10.43"
             y1="0.21600001"
             y2="5.9759998"
             id="line1190" />
          <line
             class="other"
             stroke="#000000"
             stroke-linecap="round"
             stroke-width="0.432002"
             x1="10.43"
             x2="12.23"
             y1="5.9759998"
             y2="0.21600001"
             id="line1192" />
          <line
             class="other"
             stroke="#000000"
             stroke-linecap="round"
             stroke-width="0.432002"
             x1="12.23"
             x2="14.03"
             y1="0.21600001"
             y2="5.9759998"
             id="line1194" />
          <line
             class="other"
             stroke="#000000"
             stroke-linecap="round"
             stroke-width="0.432002"
             x1="14.03"
             x2="15.8301"
             y1="5.9759998"
             y2="0.21600001"
             id="line1196" />
          <line
             class="other"
             stroke="#000000"
             stroke-linecap="round"
             stroke-width="0.432002"
             x1="15.8301"
             x2="17.6301"
             y1="0.21600001"
             y2="5.9759998"
             id="line1198" />
          <line
             class="other"
             stroke="#000000"
             stroke-linecap="round"
             stroke-width="0.432002"
             x1="17.6301"
             x2="19.430099"
             y1="5.9759998"
             y2="0.21600001"
             id="line1200" />
          <line
             class="other"
             stroke="#000000"
             stroke-linecap="round"
             stroke-width="0.432002"
             x1="19.430099"
             x2="21.230101"
             y1="0.21600001"
             y2="5.9759998"
             id="line1202" />
          <line
             class="other"
             stroke="#000000"
             stroke-linecap="round"
             stroke-width="0.432002"
             x1="21.230101"
             x2="21.9501"
             y1="5.9759998"
             y2="3.096"
             id="line1204" />
          <line
             class="pin"
             connectorname="2"
             id="line1206"
             stroke="#787878"
             stroke-linecap="round"
             stroke-width="0.700001"
             x1="29.1502"
             x2="21.9501"
             y1="3.096"
             y2="3.096" />
          <g
             class="terminal"
             fill="none"
             height="0.000283465"
             id="g1208"
             stroke="none"
             stroke-width="0"
             width="0.000283466"
             x="29.1502"
             y="3.096" />
          <text
             class="text"
             fill="#8c8c8c"
             font-family="'Droid Sans'"
             font-size="2.50001px"
             stroke="none"
             stroke-width="0"
             text-anchor="middle"
             x="25.5501"
             y="2.046"
             id="text1210">2</text>
          <line
             class="pin"
             connectorname="1"
             id="line1212"
             stroke="#787878"
             stroke-linecap="round"
             stroke-width="0.700001"
             x1="0.35000101"
             x2="7.5500202"
             y1="3.096"
             y2="3.096" />
          <g
             class="terminal"
             fill="none"
             height="0.000283465"
             id="g1214"
             stroke="none"
             stroke-width="0"
             width="0.000283466"
             x="0.350001"
             y="3.096" />
          <text
             class="text"
             fill="#8c8c8c"
             font-family="'Droid Sans'"
             font-size="2.50001px"
             stroke="none"
             stroke-width="0"
             text-anchor="middle"
             x="3.9500101"
             y="2.046"
             id="text1216">1</text>
        </g>
      </g>
    </g>
  </g>
  <g
     partID="854229240"
     id="g1230"
     transform="translate(4.416127,2.340721)">
    <g
       transform="translate(107.695,70.4905)"
       id="g1228">
      <g
         id="schematicText">
        <text
           fill="#000000"
           font-family="'Noto Sans'"
           font-size="4.46286px"
           font-weight="400"
           id="label"
           stroke-width="0"
           text-anchor="middle"
           x="23.1835"
           xml:space="preserve"
           y="6.1992002">ロジックアナライザへ</text>
      </g>
    </g>
  </g>
  <g
     partID="854229600"
     id="g1238"
     transform="translate(4.6610165)">
    <g
       transform="translate(108.234,53.5562)"
       id="g1236">
      <g
         id="g1234">
        <text
           fill="#000000"
           font-family="'Noto Sans'"
           font-size="4.46286px"
           font-weight="400"
           id="text1232"
           stroke-width="0"
           text-anchor="middle"
           x="28.1341"
           xml:space="preserve"
           y="6.1992002"><tspan
             id="tspan3878"
             x="28.1341"
             y="6.1992002">ロジックアナライザ</tspan><tspan
             id="tspan3880"
             x="28.1341"
             y="12.202304">GNDへ</tspan></text>
      </g>
    </g>
  </g>
  <g
     partID="854229270"
     id="g1242"
     transform="translate(4.6610165)">
    <line
       stroke="#000000"
       stroke-linecap="round"
       stroke-width="0.2"
       x1="137.729"
       x2="33.329498"
       y1="52.255199"
       y2="52.255199"
       id="line1240" />
  </g>
  <g
     partID="854221970"
     id="g1246"
     transform="translate(4.6610165)">
    <line
       stroke="#404040"
       stroke-linecap="round"
       stroke-width="0.699998"
       x1="137.729"
       x2="108.929"
       y1="23.4552"
       y2="23.4552"
       id="line1244" />
  </g>
  <g
     partID="854221990"
     id="g1250"
     transform="translate(4.6610165)">
    <line
       stroke="#404040"
       stroke-linecap="round"
       stroke-width="0.699998"
       x1="33.329498"
       x2="152.127"
       y1="52.255199"
       y2="52.356998"
       id="line1248" />
  </g>
  <g
     partID="854224060"
     id="g1254"
     transform="translate(4.6610165)">
    <line
       stroke="#404040"
       stroke-linecap="round"
       stroke-width="0.699998"
       x1="65.777199"
       x2="80.129303"
       y1="23.5044"
       y2="23.4552"
       id="line1252" />
  </g>
  <circle
     cx="70.43821"
     cy="23.5044"
     fill="#000000"
     r="0.72000003"
     stroke="none"
     stroke-width="0"
     id="circle1256" />
  <g
     partID="854224140"
     id="g1260"
     transform="translate(4.6610165)">
    <line
       stroke="#404040"
       stroke-linecap="round"
       stroke-width="0.699998"
       x1="65.777199"
       x2="36.924599"
       y1="23.5044"
       y2="23.5044"
       id="line1258" />
  </g>
  <circle
     cx="70.43821"
     cy="23.5044"
     fill="#000000"
     r="0.72000003"
     stroke="none"
     stroke-width="0"
     id="circle1262" />
  <circle
     cx="41.585617"
     cy="23.5044"
     fill="#000000"
     r="0.72000003"
     stroke="none"
     stroke-width="0"
     id="circle1264" />
  <g
     partID="854224340"
     id="g1268"
     transform="translate(4.6610165)">
    <line
       stroke="#404040"
       stroke-linecap="round"
       stroke-width="0.699998"
       x1="36.924599"
       x2="33.329498"
       y1="45.091999"
       y2="45.055199"
       id="line1266" />
  </g>
  <circle
     cx="41.585617"
     cy="45.091999"
     fill="#000000"
     r="0.72000003"
     stroke="none"
     stroke-width="0"
     id="circle1270" />
  <circle
     cx="37.990517"
     cy="45.055199"
     fill="#000000"
     r="1.4400001"
     stroke="none"
     stroke-width="0"
     id="circle1272" />
  <g
     partID="854224410"
     id="g1276"
     transform="translate(4.6610165)">
    <line
       stroke="#404040"
       stroke-linecap="round"
       stroke-width="0.699998"
       x1="36.924599"
       x2="36.924599"
       y1="23.5044"
       y2="45.091999"
       id="line1274" />
  </g>
  <circle
     cx="41.585617"
     cy="23.5044"
     fill="#000000"
     r="0.72000003"
     stroke="none"
     stroke-width="0"
     id="circle1278" />
  <circle
     cx="41.585617"
     cy="45.091999"
     fill="#000000"
     r="0.72000003"
     stroke="none"
     stroke-width="0"
     id="circle1280" />
  <g
     partID="854224800"
     id="g1284"
     transform="translate(4.6610165)">
    <line
       stroke="#404040"
       stroke-linecap="round"
       stroke-width="0.699998"
       x1="65.777199"
       x2="65.7295"
       y1="23.5044"
       y2="52.255199"
       id="line1282" />
  </g>
  <circle
     cx="70.43821"
     cy="23.5044"
     fill="#000000"
     r="0.72000003"
     stroke="none"
     stroke-width="0"
     id="circle1286" />
  <g
     partID="854224730"
     id="g1290"
     transform="translate(4.6610165)">
    <line
       stroke="#404040"
       stroke-linecap="round"
       stroke-width="0.699998"
       x1="36.924599"
       x2="65.777199"
       y1="23.5044"
       y2="23.5044"
       id="line1288" />
  </g>
  <circle
     cx="41.585617"
     cy="23.5044"
     fill="#000000"
     r="0.72000003"
     stroke="none"
     stroke-width="0"
     id="circle1292" />
  <circle
     cx="70.43821"
     cy="23.5044"
     fill="#000000"
     r="0.72000003"
     stroke="none"
     stroke-width="0"
     id="circle1294" />
  <g
     partID="854224660"
     id="g1298"
     transform="translate(4.6610165)">
    <line
       stroke="#404040"
       stroke-linecap="round"
       stroke-width="0.699998"
       x1="36.924599"
       x2="36.924599"
       y1="45.091999"
       y2="23.5044"
       id="line1296" />
  </g>
  <circle
     cx="41.585617"
     cy="45.091999"
     fill="#000000"
     r="0.72000003"
     stroke="none"
     stroke-width="0"
     id="circle1300" />
  <circle
     cx="41.585617"
     cy="23.5044"
     fill="#000000"
     r="0.72000003"
     stroke="none"
     stroke-width="0"
     id="circle1302" />
  <g
     partID="854224600"
     id="g1306"
     transform="translate(4.6610165)">
    <line
       stroke="#404040"
       stroke-linecap="round"
       stroke-width="0.699998"
       x1="33.329498"
       x2="36.924599"
       y1="45.055199"
       y2="45.091999"
       id="line1304" />
  </g>
  <circle
     cx="37.990517"
     cy="45.055199"
     fill="#000000"
     r="1.4400001"
     stroke="none"
     stroke-width="0"
     id="circle1308" />
  <circle
     cx="41.585617"
     cy="45.091999"
     fill="#000000"
     r="0.72000003"
     stroke="none"
     stroke-width="0"
     id="circle1310" />
  <g
     partID="854224930"
     id="g1314"
     transform="translate(4.6610165)">
    <line
       stroke="#404040"
       stroke-linecap="round"
       stroke-width="0.699998"
       x1="36.924599"
       x2="36.924599"
       y1="81.002098"
       y2="59.414501"
       id="line1312" />
  </g>
  <circle
     cx="41.585617"
     cy="81.002098"
     fill="#000000"
     r="0.72000003"
     stroke="none"
     stroke-width="0"
     id="circle1316" />
  <circle
     cx="41.585617"
     cy="59.414501"
     fill="#000000"
     r="0.72000003"
     stroke="none"
     stroke-width="0"
     id="circle1318" />
  <g
     partID="854224990"
     id="g1322"
     transform="translate(4.6610165)">
    <line
       stroke="#404040"
       stroke-linecap="round"
       stroke-width="0.699998"
       x1="36.924599"
       x2="33.329498"
       y1="59.414501"
       y2="59.4552"
       id="line1320" />
  </g>
  <circle
     cx="41.585617"
     cy="59.414501"
     fill="#000000"
     r="0.72000003"
     stroke="none"
     stroke-width="0"
     id="circle1324" />
  <circle
     cx="37.990517"
     cy="59.4552"
     fill="#000000"
     r="1.4400001"
     stroke="none"
     stroke-width="0"
     id="circle1326" />
  <g
     partID="854224940"
     id="g1330"
     transform="translate(4.6610165)">
    <line
       stroke="#404040"
       stroke-linecap="round"
       stroke-width="0.699998"
       x1="152.127"
       x2="36.924599"
       y1="81.002098"
       y2="81.002098"
       id="line1328" />
  </g>
  <circle
     cx="41.585617"
     cy="81.002098"
     fill="#000000"
     r="0.72000003"
     stroke="none"
     stroke-width="0"
     id="circle1332" />
  <g
     partID="854229490"
     id="g1336"
     transform="translate(4.6610165)">
    <line
       stroke="#404040"
       stroke-linecap="round"
       stroke-width="0.699998"
       x1="36.924599"
       x2="33.329498"
       y1="59.414501"
       y2="59.4552"
       id="line1334" />
  </g>
  <circle
     cx="41.585617"
     cy="59.414501"
     fill="#000000"
     r="0.72000003"
     stroke="none"
     stroke-width="0"
     id="circle1338" />
  <circle
     cx="37.990517"
     cy="59.4552"
     fill="#000000"
     r="1.4400001"
     stroke="none"
     stroke-width="0"
     id="circle1340" />
  <g
     partID="854229550"
     id="g1344"
     transform="translate(4.6610165)">
    <line
       stroke="#404040"
       stroke-linecap="round"
       stroke-width="0.699998"
       x1="36.924599"
       x2="36.924599"
       y1="81.002098"
       y2="59.414501"
       id="line1342" />
  </g>
  <circle
     cx="41.585617"
     cy="81.002098"
     fill="#000000"
     r="0.72000003"
     stroke="none"
     stroke-width="0"
     id="circle1346" />
  <circle
     cx="41.585617"
     cy="59.414501"
     fill="#000000"
     r="0.72000003"
     stroke="none"
     stroke-width="0"
     id="circle1348" />
  <g
     partID="854229500"
     id="g1352"
     transform="translate(4.6610165)">
    <line
       stroke="#404040"
       stroke-linecap="round"
       stroke-width="0.699998"
       x1="65.7295"
       x2="36.924599"
       y1="81.055397"
       y2="81.002098"
       id="line1350" />
  </g>
  <circle
     cx="41.585617"
     cy="81.002098"
     fill="#000000"
     r="0.72000003"
     stroke="none"
     stroke-width="0"
     id="circle1354" />
  <g
     id="partLabel"
     partID="854209990"
     transform="translate(4.6610165)">
    <g
       transform="translate(18.2363,26.7583)"
       id="g1359">
      <g
         fill="#000000"
         fill-opacity="1"
         font-family="DroidSans"
         font-size="5px"
         font-style="normal"
         font-weight="normal"
         id="schematicLabel"
         stroke="none">
        <text
           x="0"
           y="5"
           id="text1356">IR1</text>
      </g>
    </g>
  </g>
  <g
     id="g1370"
     partID="854219460"
     transform="translate(4.6610165)">
    <g
       transform="translate(150.869,32.2115)"
       id="g1368">
      <g
         fill="#000000"
         fill-opacity="1"
         font-family="DroidSans"
         font-size="5px"
         font-style="normal"
         font-weight="normal"
         id="g1366"
         stroke="none">
        <text
           x="0"
           y="5"
           id="text1362">V1</text>
        <text
           x="0"
           y="10"
           id="text1364">5V</text>
      </g>
    </g>
  </g>
  <g
     id="g1382"
     partID="854220530"
     transform="translate(4.6610165)">
    <g
       transform="translate(88.7294)"
       id="g1380">
      <g
         fill="#000000"
         fill-opacity="1"
         font-family="DroidSans"
         font-size="5px"
         font-style="normal"
         font-weight="normal"
         id="g1378"
         stroke="none">
        <text
           x="0"
           y="5"
           id="text1372">R1</text>
        <text
           x="0"
           y="10"
           id="text1374">220Ω</text>
        <text
           x="0"
           y="15"
           id="text1376">±5%</text>
      </g>
    </g>
  </g>
  <g
     id="g1394"
     partID="854220620"
     transform="translate(4.6610165)">
    <g
       transform="translate(73.6294,58.7684)"
       id="g1392">
      <g
         fill="#000000"
         fill-opacity="1"
         font-family="DroidSans"
         font-size="5px"
         font-style="normal"
         font-weight="normal"
         id="g1390"
         stroke="none">
        <text
           x="0"
           y="5"
           id="text1384">R2</text>
        <text
           x="0"
           y="10"
           id="text1386">10kΩ</text>
        <text
           x="0"
           y="15"
           id="text1388">±5%</text>
      </g>
    </g>
  </g>
</svg>
