<?xml version='1.0' encoding='UTF-8' standalone='no'?>
<!-- Created with Fritzing (https://fritzing.org/) -->
<svg xmlns="http://www.w3.org/2000/svg" baseProfile="tiny" height="1023px" version="1.2" viewBox="0 0 164.502 105.149" width="1600px" x="0in"  xmlns:svg="http://www.w3.org/2000/svg" y="0in">
 <g id="watermark" >
  <g >
   <g >
    <path d="M139.77,98.9486c-0.604,0,-1.131,0.325,-1.422,0.809l-2.796,0l3.96,-4.071c0.146,-0.146,0.289,-0.322,0.428,-0.521c0.149,-0.222,0.228,-0.479,0.228,-0.768c0,-0.279,-0.097,-0.518,-0.287,-0.71c-0.19,-0.188,-0.444,-0.287,-0.754,-0.287l-4.636,0c-0.305,0,-0.555,0.06,-0.742,0.17c-0.219,0.13,-0.33,0.368,-0.33,0.707c0,0.329,0.111,0.562,0.33,0.692c0.188,0.111,0.438,0.168,0.742,0.168l3.148,0l-3.974,4.086c-0.146,0.147,-0.289,0.315,-0.425,0.504c-0.153,0.212,-0.23,0.472,-0.23,0.771c0,0.28,0.096,0.521,0.288,0.711c0.188,0.188,0.442,0.285,0.754,0.285l4.315,0c0.293,0.467,0.812,0.776,1.4,0.776c0.916,0,1.66,-0.744,1.66,-1.661C141.429,99.6936,140.684,98.9486,139.77,98.9486zM139.77,101.212c-0.334,0,-0.604,-0.271,-0.604,-0.604c0,-0.333,0.27,-0.604,0.604,-0.604c0.332,0,0.604,0.271,0.604,0.604C140.373,100.943,140.102,101.212,139.77,101.212z" fill="#8C8C8C" />
    <path d="M122.827,88.9066c-0.914,0,-1.659,0.745,-1.659,1.66c0,0.916,0.745,1.66,1.659,1.66s1.658,-0.744,1.658,-1.66C124.487,89.6516,123.743,88.9066,122.827,88.9066zM122.828,91.1696c-0.333,0,-0.604,-0.27,-0.604,-0.603s0.271,-0.603,0.604,-0.603c0.331,0,0.604,0.27,0.604,0.603S123.159,91.1696,122.828,91.1696z" fill="#8C8C8C" />
    <path d="M131.348,93.5686c-0.193,-0.111,-0.439,-0.169,-0.732,-0.169l-1.465,0L129.151,90.8776c0,-0.292,-0.057,-0.538,-0.166,-0.729C128.895,89.9916,128.702,89.8066,128.292,89.8066c-0.34,0,-0.578,0.116,-0.709,0.342c-0.109,0.193,-0.167,0.438,-0.167,0.729l0,2.521l-0.481,0c-0.295,0,-0.539,0.06,-0.731,0.169c-0.228,0.129,-0.341,0.368,-0.341,0.708c0,0.412,0.185,0.603,0.341,0.692c0.192,0.111,0.438,0.168,0.731,0.168l0.481,0l0,4.362c0,0.277,0.026,0.533,0.081,0.768c0.056,0.246,0.154,0.464,0.298,0.645c0.146,0.186,0.345,0.332,0.595,0.436c0.241,0.098,0.555,0.146,0.93,0.146l0.896,0c0.292,0,0.539,-0.054,0.731,-0.166c0.154,-0.089,0.341,-0.281,0.341,-0.693c0,-0.338,-0.114,-0.578,-0.341,-0.709c-0.192,-0.109,-0.439,-0.168,-0.731,-0.168l-0.821,0c-0.138,0,-0.19,-0.019,-0.207,-0.024c-0.014,-0.034,-0.035,-0.103,-0.035,-0.231L129.153,95.1366l1.465,0c0.295,0,0.541,-0.057,0.734,-0.168c0.152,-0.09,0.34,-0.28,0.34,-0.692C131.688,93.9366,131.575,93.6976,131.348,93.5686z" fill="#8C8C8C" />
    <path d="M122.893,93.3986l-1.191,0c-0.292,0,-0.538,0.059,-0.731,0.169c-0.226,0.129,-0.341,0.368,-0.341,0.708c0,0.412,0.188,0.604,0.341,0.691c0.193,0.113,0.439,0.168,0.731,0.168l0.544,0l0,5.362c0,0.293,0.057,0.539,0.167,0.73c0.131,0.227,0.367,0.341,0.708,0.341c0.411,0,0.604,-0.187,0.692,-0.341c0.111,-0.191,0.168,-0.438,0.168,-0.73L123.981,94.4866c0,-0.386,-0.084,-0.656,-0.256,-0.83C123.55,93.4846,123.28,93.3986,122.893,93.3986z" fill="#8C8C8C" />
    <path d="M119.058,93.5686c-0.193,-0.111,-0.44,-0.169,-0.732,-0.169l-0.604,0c-0.25,0,-0.498,0.063,-0.734,0.187c-0.226,0.119,-0.433,0.271,-0.616,0.453l-0.644,0.604l0,-0.247c0,-0.291,-0.055,-0.538,-0.168,-0.729c-0.128,-0.228,-0.368,-0.34,-0.707,-0.34c-0.41,0,-0.604,0.184,-0.693,0.34c-0.11,0.191,-0.167,0.438,-0.167,0.729l0,4.801c-0.475,0.293,-0.791,0.816,-0.791,1.412c0,0.917,0.745,1.661,1.658,1.661c0.916,0,1.66,-0.744,1.66,-1.661c0,-0.596,-0.317,-1.119,-0.792,-1.412l0,-2.21l1.738,-1.564c0.1,-0.09,0.199,-0.164,0.297,-0.217c0.084,-0.045,0.174,-0.067,0.274,-0.067l0.288,0c0.292,0,0.539,-0.056,0.732,-0.169c0.155,-0.088,0.339,-0.279,0.339,-0.691C119.398,93.9366,119.283,93.6976,119.058,93.5686zM114.859,101.212c-0.332,0,-0.603,-0.271,-0.603,-0.604c0,-0.333,0.271,-0.604,0.603,-0.604c0.333,0,0.604,0.271,0.604,0.604C115.463,100.943,115.192,101.212,114.859,101.212z" fill="#8C8C8C" />
    <path d="M112.342,90.0496c-0.193,-0.111,-0.44,-0.167,-0.731,-0.167l-0.59,0c-0.2,0,-0.389,0.004,-0.562,0.016c-0.176,0.009,-0.345,0.035,-0.506,0.07c-0.168,0.041,-0.336,0.109,-0.496,0.202c-0.158,0.093,-0.319,0.222,-0.48,0.382c-0.334,0.314,-0.554,0.656,-0.652,1.017c-0.094,0.348,-0.143,0.735,-0.143,1.151l0,0.678l-0.483,0c-0.292,0,-0.539,0.059,-0.73,0.169c-0.227,0.13,-0.342,0.369,-0.342,0.708c0,0.412,0.185,0.604,0.341,0.693c0.191,0.111,0.438,0.166,0.73,0.166l0.483,0l0,5.362c0,0.293,0.057,0.539,0.167,0.73c0.13,0.227,0.367,0.341,0.708,0.341c0.411,0,0.603,-0.187,0.692,-0.341c0.111,-0.191,0.168,-0.438,0.168,-0.73l0,-5.36l0.92,0c0.293,0,0.54,-0.057,0.732,-0.168c0.155,-0.09,0.34,-0.28,0.34,-0.692c0,-0.34,-0.114,-0.579,-0.34,-0.708c-0.189,-0.111,-0.436,-0.17,-0.729,-0.17l-0.92,0l0,-0.678c0,-0.218,0.019,-0.41,0.056,-0.571c0.032,-0.141,0.103,-0.261,0.218,-0.367l0.002,-0.004l0.002,-0.002c0.082,-0.082,0.176,-0.126,0.29,-0.136c0.15,-0.015,0.339,-0.022,0.564,-0.022l0.56,0c0.291,0,0.539,-0.058,0.731,-0.168c0.154,-0.088,0.339,-0.281,0.339,-0.693C112.682,90.4186,112.567,90.1796,112.342,90.0496z" fill="#8C8C8C" />
    <path d="M164.335,93.6666c-0.089,-0.156,-0.282,-0.34,-0.693,-0.34c-0.339,0,-0.578,0.113,-0.707,0.34c-0.078,0.133,-0.127,0.293,-0.152,0.477l-0.021,-0.021c-0.216,-0.236,-0.466,-0.42,-0.747,-0.539c-0.277,-0.119,-0.563,-0.183,-0.849,-0.183l-0.709,0c-0.249,0,-0.466,0.015,-0.64,0.041c-0.182,0.026,-0.352,0.074,-0.51,0.14c-0.158,0.066,-0.313,0.15,-0.459,0.254c-0.139,0.097,-0.303,0.226,-0.486,0.377c-0.188,0.156,-0.342,0.302,-0.463,0.434c-0.127,0.141,-0.23,0.293,-0.306,0.455c-0.069,0.16,-0.122,0.337,-0.147,0.523c-0.026,0.178,-0.041,0.391,-0.041,0.631l0,2.386c0,0.24,0.015,0.451,0.041,0.631c0.025,0.188,0.078,0.361,0.147,0.521c0.074,0.164,0.179,0.318,0.306,0.457c0.119,0.129,0.274,0.274,0.463,0.433c0.186,0.153,0.35,0.28,0.486,0.379c0.146,0.103,0.299,0.188,0.459,0.254c0.158,0.065,0.329,0.112,0.51,0.14c0.174,0.026,0.389,0.039,0.64,0.039l0.709,0c0.298,0,0.591,-0.066,0.87,-0.199c0.244,-0.114,0.492,-0.291,0.73,-0.523l0,1.434c0,0.18,-0.025,0.334,-0.072,0.465c-0.043,0.119,-0.159,0.258,-0.344,0.406c-0.154,0.127,-0.309,0.217,-0.457,0.264c-0.15,0.049,-0.341,0.074,-0.563,0.074l-2.203,0c-0.293,0,-0.538,0.055,-0.732,0.166c-0.152,0.088,-0.34,0.282,-0.34,0.692c0,0.341,0.115,0.579,0.34,0.71c0.194,0.109,0.439,0.167,0.732,0.167l2.326,0c0.247,0,0.463,-0.015,0.638,-0.041c0.179,-0.026,0.351,-0.073,0.513,-0.14c0.153,-0.064,0.31,-0.15,0.455,-0.254c0.143,-0.101,0.305,-0.227,0.487,-0.379c0.185,-0.153,0.343,-0.299,0.463,-0.431c0.128,-0.141,0.229,-0.294,0.304,-0.456c0.071,-0.162,0.123,-0.338,0.148,-0.523c0.025,-0.182,0.041,-0.393,0.041,-0.631l0,-7.898C164.502,94.1046,164.448,93.8576,164.335,93.6666zM162.766,98.1266c0,0.188,-0.062,0.35,-0.188,0.49c-0.15,0.172,-0.394,0.403,-0.716,0.686l-0.002,0.003l-0.002,0.004c-0.139,0.13,-0.291,0.237,-0.453,0.325c-0.148,0.082,-0.325,0.121,-0.526,0.121L160.578,99.7556c-0.222,0,-0.41,-0.021,-0.563,-0.072c-0.148,-0.049,-0.301,-0.137,-0.453,-0.264c-0.231,-0.186,-0.315,-0.322,-0.346,-0.404c-0.049,-0.131,-0.072,-0.285,-0.072,-0.465l0,-2.206c0,-0.18,0.023,-0.336,0.072,-0.467c0.029,-0.082,0.113,-0.217,0.346,-0.403c0.152,-0.127,0.305,-0.216,0.453,-0.265c0.153,-0.049,0.342,-0.072,0.563,-0.072l0.301,0c0.212,0,0.388,0.037,0.526,0.113c0.152,0.082,0.308,0.191,0.457,0.324c0.322,0.293,0.564,0.529,0.716,0.7c0.128,0.146,0.188,0.304,0.188,0.492L162.766,98.1266z" fill="#8C8C8C" />
    <path d="M144.356,88.9066c-0.914,0,-1.66,0.745,-1.66,1.66c0,0.916,0.746,1.66,1.66,1.66s1.66,-0.744,1.66,-1.66C146.016,89.6516,145.27,88.9066,144.356,88.9066zM144.356,91.1696c-0.332,0,-0.604,-0.27,-0.604,-0.603s0.271,-0.603,0.604,-0.603s0.604,0.27,0.604,0.603C144.96,90.8996,144.688,91.1696,144.356,91.1696z" fill="#8C8C8C" />
    <path d="M155.042,99.1746l-0.107,-3.419c-0.011,-0.178,-0.021,-0.338,-0.031,-0.489c-0.01,-0.162,-0.037,-0.322,-0.082,-0.476c-0.045,-0.158,-0.11,-0.309,-0.198,-0.453c-0.093,-0.146,-0.216,-0.289,-0.37,-0.42c-0.225,-0.192,-0.443,-0.334,-0.646,-0.416c-0.207,-0.084,-0.461,-0.127,-0.754,-0.127l-1.012,0c-0.259,0,-0.501,0.058,-0.716,0.164c-0.197,0.098,-0.39,0.203,-0.572,0.315l-0.003,0.002l-0.003,0.003l-0.837,0.555l0,-0.041c0,-0.291,-0.057,-0.539,-0.168,-0.733c-0.129,-0.226,-0.367,-0.339,-0.707,-0.339c-0.411,0,-0.604,0.185,-0.693,0.339c-0.109,0.194,-0.168,0.438,-0.168,0.733l0,6.099c0,0.295,0.059,0.539,0.168,0.734c0.09,0.153,0.282,0.338,0.693,0.338c0.34,0,0.578,-0.114,0.707,-0.338c0.111,-0.195,0.168,-0.439,0.168,-0.734L149.711,96.4366l1.953,-1.215c0.04,-0.024,0.082,-0.048,0.121,-0.063c0.031,-0.016,0.07,-0.025,0.115,-0.031c0.049,-0.012,0.117,-0.016,0.195,-0.016l0.362,0c0.188,0,0.334,0.021,0.435,0.059c0.082,0.029,0.143,0.076,0.18,0.143c0.05,0.078,0.08,0.18,0.098,0.303c0.02,0.139,0.034,0.309,0.045,0.504l0.096,3.097c-0.457,0.297,-0.762,0.811,-0.762,1.394c0,0.917,0.746,1.661,1.66,1.661c0.916,0,1.66,-0.744,1.66,-1.661C155.868,99.9996,155.535,99.4616,155.042,99.1746zM154.208,101.212c-0.334,0,-0.602,-0.271,-0.602,-0.604c0,-0.333,0.268,-0.604,0.602,-0.604c0.333,0,0.604,0.271,0.604,0.604C154.813,100.943,154.541,101.212,154.208,101.212z" fill="#8C8C8C" />
    <path d="M144.419,93.3986l-1.193,0c-0.293,0,-0.539,0.059,-0.731,0.169c-0.226,0.129,-0.341,0.368,-0.341,0.708c0,0.412,0.186,0.604,0.341,0.691c0.192,0.113,0.438,0.168,0.731,0.168l0.545,0l0,5.362c0,0.293,0.055,0.539,0.168,0.73c0.127,0.227,0.365,0.341,0.707,0.341c0.41,0,0.604,-0.187,0.691,-0.341c0.111,-0.191,0.17,-0.438,0.17,-0.73L145.507,94.4866c0,-0.386,-0.085,-0.656,-0.259,-0.83C145.076,93.4846,144.803,93.3986,144.419,93.3986z" fill="#8C8C8C" />
   </g>
  </g>
 </g>
 <g partID="854219460">
  <g transform="translate(130.144,23.0952)">
   <g id="schematic" >
    <circle cx="7.56" cy="14.7628" fill="none" id="circle12" r="7.2" stroke="#000000" stroke-linecap="round" stroke-linejoin="round" stroke-width="0.72" />
    <line fill="none" stroke="#555555" stroke-linecap="round" stroke-width="0.72" x1="7.55967" x2="7.55967"  y1="9.36" y2="12.24"/>
    <line fill="none" stroke="#555555" stroke-linecap="round" stroke-width="0.72" x1="6.048" x2="8.928"  y1="10.8" y2="10.8"/>
    <line fill="none" stroke="#555555" stroke-linecap="round" stroke-width="0.72" x1="6.048" x2="8.928"  y1="18.72" y2="18.72"/>
    <line fill="none" id="connector0pin" stroke="#555555" stroke-linecap="round" stroke-width="0.72" x1="7.55967" x2="7.55967"  y1="7.1835" y2="0.36"/>
    <g fill="none" height="0.72" id="connector0terminal" stroke-width="0" width="0.72" x="7.22518"  y="2.04636e-15"/>
    <line fill="none" id="connector1pin" stroke="#555555" stroke-linecap="round" stroke-linejoin="round" stroke-width="0.72" x1="7.55967" x2="7.55967"  y1="29.1435" y2="22.32"/>
    <g fill="none" height="0.72" id="connector1terminal" stroke-width="0" width="0.72" x="7.22518"  y="28.8"/>
   </g>
  </g>
 </g>
 <g partID="854220530">
  <g transform="translate(79.7791,20.359)">
   <g id="schematic" >
    <line class="other" stroke="#000000" stroke-linecap="round" stroke-width="0.432002" x1="7.55002" x2="8.63003"  y1="3.096" y2="0.216"/>
    <line class="other" stroke="#000000" stroke-linecap="round" stroke-width="0.432002" x1="8.63003" x2="10.43"  y1="0.216" y2="5.976"/>
    <line class="other" stroke="#000000" stroke-linecap="round" stroke-width="0.432002" x1="10.43" x2="12.23"  y1="5.976" y2="0.216"/>
    <line class="other" stroke="#000000" stroke-linecap="round" stroke-width="0.432002" x1="12.23" x2="14.03"  y1="0.216" y2="5.976"/>
    <line class="other" stroke="#000000" stroke-linecap="round" stroke-width="0.432002" x1="14.03" x2="15.8301"  y1="5.976" y2="0.216"/>
    <line class="other" stroke="#000000" stroke-linecap="round" stroke-width="0.432002" x1="15.8301" x2="17.6301"  y1="0.216" y2="5.976"/>
    <line class="other" stroke="#000000" stroke-linecap="round" stroke-width="0.432002" x1="17.6301" x2="19.4301"  y1="5.976" y2="0.216"/>
    <line class="other" stroke="#000000" stroke-linecap="round" stroke-width="0.432002" x1="19.4301" x2="21.2301"  y1="0.216" y2="5.976"/>
    <line class="other" stroke="#000000" stroke-linecap="round" stroke-width="0.432002" x1="21.2301" x2="21.9501"  y1="5.976" y2="3.096"/>
    <line class="pin" connectorname="2" id="connector1pin" stroke="#787878" stroke-linecap="round" stroke-width="0.700001" x1="29.1502" x2="21.9501"  y1="3.096" y2="3.096"/>
    <g class="terminal" fill="none" height="0.000283465" id="connector1terminal" stroke="none" stroke-width="0" width="0.000283466" x="29.1502"  y="3.096"/>
    <text class="text" fill="#8c8c8c" font-family="'Droid Sans'" font-size="2.50001" stroke="none" stroke-width="0" text-anchor="middle" x="25.5501"  y="2.046">2</text>
    <line class="pin" connectorname="1" id="connector0pin" stroke="#787878" stroke-linecap="round" stroke-width="0.700001" x1="0.350001" x2="7.55002"  y1="3.096" y2="3.096"/>
    <g class="terminal" fill="none" height="0.000283465" id="connector0terminal" stroke="none" stroke-width="0" width="0.000283466" x="0.350001"  y="3.096"/>
    <text class="text" fill="#8c8c8c" font-family="'Droid Sans'" font-size="2.50001" stroke="none" stroke-width="0" text-anchor="middle" x="3.95001"  y="2.046">1</text>
   </g>
  </g>
 </g>
 <g partID="854220620">
  <g transform="translate(62.6333,81.4055)">
   <g transform="matrix(0,-1,1,0,0,0)">
    <g id="schematic" >
     <line class="other" stroke="#000000" stroke-linecap="round" stroke-width="0.432002" x1="7.55002" x2="8.63003"  y1="3.096" y2="0.216"/>
     <line class="other" stroke="#000000" stroke-linecap="round" stroke-width="0.432002" x1="8.63003" x2="10.43"  y1="0.216" y2="5.976"/>
     <line class="other" stroke="#000000" stroke-linecap="round" stroke-width="0.432002" x1="10.43" x2="12.23"  y1="5.976" y2="0.216"/>
     <line class="other" stroke="#000000" stroke-linecap="round" stroke-width="0.432002" x1="12.23" x2="14.03"  y1="0.216" y2="5.976"/>
     <line class="other" stroke="#000000" stroke-linecap="round" stroke-width="0.432002" x1="14.03" x2="15.8301"  y1="5.976" y2="0.216"/>
     <line class="other" stroke="#000000" stroke-linecap="round" stroke-width="0.432002" x1="15.8301" x2="17.6301"  y1="0.216" y2="5.976"/>
     <line class="other" stroke="#000000" stroke-linecap="round" stroke-width="0.432002" x1="17.6301" x2="19.4301"  y1="5.976" y2="0.216"/>
     <line class="other" stroke="#000000" stroke-linecap="round" stroke-width="0.432002" x1="19.4301" x2="21.2301"  y1="0.216" y2="5.976"/>
     <line class="other" stroke="#000000" stroke-linecap="round" stroke-width="0.432002" x1="21.2301" x2="21.9501"  y1="5.976" y2="3.096"/>
     <line class="pin" connectorname="2" id="connector1pin" stroke="#787878" stroke-linecap="round" stroke-width="0.700001" x1="29.1502" x2="21.9501"  y1="3.096" y2="3.096"/>
     <g class="terminal" fill="none" height="0.000283465" id="connector1terminal" stroke="none" stroke-width="0" width="0.000283466" x="29.1502"  y="3.096"/>
     <text class="text" fill="#8c8c8c" font-family="'Droid Sans'" font-size="2.50001" stroke="none" stroke-width="0" text-anchor="middle" x="25.5501"  y="2.046">2</text>
     <line class="pin" connectorname="1" id="connector0pin" stroke="#787878" stroke-linecap="round" stroke-width="0.700001" x1="0.350001" x2="7.55002"  y1="3.096" y2="3.096"/>
     <g class="terminal" fill="none" height="0.000283465" id="connector0terminal" stroke="none" stroke-width="0" width="0.000283466" x="0.350001"  y="3.096"/>
     <text class="text" fill="#8c8c8c" font-family="'Droid Sans'" font-size="2.50001" stroke="none" stroke-width="0" text-anchor="middle" x="3.95001"  y="2.046">1</text>
    </g>
   </g>
  </g>
 </g>
 <g partID="854229240">
  <g transform="translate(107.695,70.4905)">
   <g id="schematicText" >
    <text fill="black" font-family="Noto Sans" font-size="4.46286" font-weight="400" id="label" stroke-width="0" text-anchor="middle" x="23.1835" xml:space="preserve"  xmlns:xml="http://www.w3.org/XML/1998/namespace" y="6.1992">&#x30ed;&#x30b8;&#x30c3;&#x30af;&#x30a2;&#x30ca;&#x30e9;&#x30a4;&#x30b6;&#x3078;</text>
   </g>
  </g>
 </g>
 <g partID="854229600">
  <g transform="translate(108.234,53.5562)">
   <g id="schematicText" >
    <text fill="black" font-family="Noto Sans" font-size="4.46286" font-weight="400" id="label" stroke-width="0" text-anchor="middle" x="28.1341" xml:space="preserve"  xmlns:xml="http://www.w3.org/XML/1998/namespace" y="6.1992">&#x30ed;&#x30b8;&#x30c3;&#x30af;&#x30a2;&#x30ca;&#x30e9;&#x30a4;&#x30b6;GND&#x3078;</text>
   </g>
  </g>
 </g>
 <g partID="854229270">
  <line stroke="#000000" stroke-linecap="round" stroke-width="0.2" x1="137.729" x2="33.3295" y1="52.2552" y2="52.2552"/>
 </g>
 <g partID="854221970">
  <line stroke="#404040" stroke-linecap="round" stroke-width="0.699998" x1="137.729" x2="108.929" y1="23.4552" y2="23.4552"/>
 </g>
 <g partID="854221990">
  <line stroke="#404040" stroke-linecap="round" stroke-width="0.699998" x1="33.3295" x2="152.127" y1="52.2552" y2="52.357"/>
 </g>
 <g partID="854224060">
  <line stroke="#404040" stroke-linecap="round" stroke-width="0.699998" x1="65.7772" x2="80.1293" y1="23.5044" y2="23.4552"/>
 </g>
 <circle cx="65.7772" cy="23.5044" fill="black" r="0.72" stroke="none" stroke-width="0"/>
 <g partID="854224140">
  <line stroke="#404040" stroke-linecap="round" stroke-width="0.699998" x1="65.7772" x2="36.9246" y1="23.5044" y2="23.5044"/>
 </g>
 <circle cx="65.7772" cy="23.5044" fill="black" r="0.72" stroke="none" stroke-width="0"/>
 <circle cx="36.9246" cy="23.5044" fill="black" r="0.72" stroke="none" stroke-width="0"/>
 <g partID="854224340">
  <line stroke="#404040" stroke-linecap="round" stroke-width="0.699998" x1="36.9246" x2="33.3295" y1="45.092" y2="45.0552"/>
 </g>
 <circle cx="36.9246" cy="45.092" fill="black" r="0.72" stroke="none" stroke-width="0"/>
 <circle cx="33.3295" cy="45.0552" fill="black" r="1.44" stroke="none" stroke-width="0"/>
 <g partID="854224410">
  <line stroke="#404040" stroke-linecap="round" stroke-width="0.699998" x1="36.9246" x2="36.9246" y1="23.5044" y2="45.092"/>
 </g>
 <circle cx="36.9246" cy="23.5044" fill="black" r="0.72" stroke="none" stroke-width="0"/>
 <circle cx="36.9246" cy="45.092" fill="black" r="0.72" stroke="none" stroke-width="0"/>
 <g partID="854224800">
  <line stroke="#404040" stroke-linecap="round" stroke-width="0.699998" x1="65.7772" x2="65.7295" y1="23.5044" y2="52.2552"/>
 </g>
 <circle cx="65.7772" cy="23.5044" fill="black" r="0.72" stroke="none" stroke-width="0"/>
 <g partID="854224730">
  <line stroke="#404040" stroke-linecap="round" stroke-width="0.699998" x1="36.9246" x2="65.7772" y1="23.5044" y2="23.5044"/>
 </g>
 <circle cx="36.9246" cy="23.5044" fill="black" r="0.72" stroke="none" stroke-width="0"/>
 <circle cx="65.7772" cy="23.5044" fill="black" r="0.72" stroke="none" stroke-width="0"/>
 <g partID="854224660">
  <line stroke="#404040" stroke-linecap="round" stroke-width="0.699998" x1="36.9246" x2="36.9246" y1="45.092" y2="23.5044"/>
 </g>
 <circle cx="36.9246" cy="45.092" fill="black" r="0.72" stroke="none" stroke-width="0"/>
 <circle cx="36.9246" cy="23.5044" fill="black" r="0.72" stroke="none" stroke-width="0"/>
 <g partID="854224600">
  <line stroke="#404040" stroke-linecap="round" stroke-width="0.699998" x1="33.3295" x2="36.9246" y1="45.0552" y2="45.092"/>
 </g>
 <circle cx="33.3295" cy="45.0552" fill="black" r="1.44" stroke="none" stroke-width="0"/>
 <circle cx="36.9246" cy="45.092" fill="black" r="0.72" stroke="none" stroke-width="0"/>
 <g partID="854224930">
  <line stroke="#404040" stroke-linecap="round" stroke-width="0.699998" x1="36.9246" x2="36.9246" y1="81.0021" y2="59.4145"/>
 </g>
 <circle cx="36.9246" cy="81.0021" fill="black" r="0.72" stroke="none" stroke-width="0"/>
 <circle cx="36.9246" cy="59.4145" fill="black" r="0.72" stroke="none" stroke-width="0"/>
 <g partID="854224990">
  <line stroke="#404040" stroke-linecap="round" stroke-width="0.699998" x1="36.9246" x2="33.3295" y1="59.4145" y2="59.4552"/>
 </g>
 <circle cx="36.9246" cy="59.4145" fill="black" r="0.72" stroke="none" stroke-width="0"/>
 <circle cx="33.3295" cy="59.4552" fill="black" r="1.44" stroke="none" stroke-width="0"/>
 <g partID="854224940">
  <line stroke="#404040" stroke-linecap="round" stroke-width="0.699998" x1="152.127" x2="36.9246" y1="81.0021" y2="81.0021"/>
 </g>
 <circle cx="36.9246" cy="81.0021" fill="black" r="0.72" stroke="none" stroke-width="0"/>
 <g partID="854229490">
  <line stroke="#404040" stroke-linecap="round" stroke-width="0.699998" x1="36.9246" x2="33.3295" y1="59.4145" y2="59.4552"/>
 </g>
 <circle cx="36.9246" cy="59.4145" fill="black" r="0.72" stroke="none" stroke-width="0"/>
 <circle cx="33.3295" cy="59.4552" fill="black" r="1.44" stroke="none" stroke-width="0"/>
 <g partID="854229550">
  <line stroke="#404040" stroke-linecap="round" stroke-width="0.699998" x1="36.9246" x2="36.9246" y1="81.0021" y2="59.4145"/>
 </g>
 <circle cx="36.9246" cy="81.0021" fill="black" r="0.72" stroke="none" stroke-width="0"/>
 <circle cx="36.9246" cy="59.4145" fill="black" r="0.72" stroke="none" stroke-width="0"/>
 <g partID="854229500">
  <line stroke="#404040" stroke-linecap="round" stroke-width="0.699998" x1="65.7295" x2="36.9246" y1="81.0554" y2="81.0021"/>
 </g>
 <circle cx="36.9246" cy="81.0021" fill="black" r="0.72" stroke="none" stroke-width="0"/>
 <g id="partLabel" partID="854209990">
  <g transform="translate(18.2363,26.7583)">
   <g fill="#000000" fill-opacity="1" font-family="'DroidSans'" font-size="5.000" font-style="normal" font-weight="normal" id="schematicLabel" stroke="none">
    <text x="0" y="5.000">IR1</text>
   </g>
  </g>
 </g>
 <g id="partLabel" partID="854219460">
  <g transform="translate(150.869,32.2115)">
   <g fill="#000000" fill-opacity="1" font-family="'DroidSans'" font-size="5.000" font-style="normal" font-weight="normal" id="schematicLabel" stroke="none">
    <text x="0" y="5.000">V1</text>
    <text x="0" y="10.000">5V</text>
   </g>
  </g>
 </g>
 <g id="partLabel" partID="854220530">
  <g transform="translate(88.7294,0)">
   <g fill="#000000" fill-opacity="1" font-family="'DroidSans'" font-size="5.000" font-style="normal" font-weight="normal" id="schematicLabel" stroke="none">
    <text x="0" y="5.000">R1</text>
    <text x="0" y="10.000">220&#x3a9;</text>
    <text x="0" y="15.000">&#xb1;5%</text>
   </g>
  </g>
 </g>
 <g id="partLabel" partID="854220620">
  <g transform="translate(73.6294,58.7684)">
   <g fill="#000000" fill-opacity="1" font-family="'DroidSans'" font-size="5.000" font-style="normal" font-weight="normal" id="schematicLabel" stroke="none">
    <text x="0" y="5.000">R2</text>
    <text x="0" y="10.000">10k&#x3a9;</text>
    <text x="0" y="15.000">&#xb1;5%</text>
   </g>
  </g>
 </g>
</svg>
